<svg width="38" height="47" viewBox="0 0 38 47" fill="none" xmlns="http://www.w3.org/2000/svg">
<path d="M19.0039 5.83752L18.6667 5.52942L18.3294 5.83752C13.5853 10.1716 10.0531 14.1704 7.7036 17.7877C5.35739 21.3999 4.16667 24.669 4.16667 27.5333C4.16667 36.273 10.5674 42.5 18.6667 42.5C26.7659 42.5 33.1667 36.273 33.1667 27.5333C33.1667 24.6575 31.9761 21.3884 29.6296 17.7787C27.2801 14.1643 23.7478 10.1714 19.0039 5.83752ZM19.295 39.144L19.295 39.1439L19.2895 39.1443C14.523 39.4352 8.97976 36.7156 7.70264 29.9442C7.67482 29.7674 7.68531 29.5866 7.73343 29.4141C7.78208 29.2397 7.86801 29.078 7.9853 28.9401C8.10258 28.8022 8.24842 28.6915 8.41272 28.6155C8.57702 28.5395 8.75587 28.5001 8.93689 28.5C9.54903 28.5001 10.0516 28.9251 10.1721 29.54C11.1865 35.0255 15.8261 36.9102 19.1876 36.6425C19.906 36.6133 20.5 37.1812 20.5 37.8933C20.5 38.5546 19.9679 39.1103 19.295 39.144ZM0.5 27.5333C0.5 23.7948 2.00418 19.663 5.08337 15.1236C8.10748 10.6654 12.6305 5.84422 18.6667 0.658292C24.7028 5.84422 29.2259 10.6654 32.25 15.1236C35.3291 19.663 36.8333 23.7948 36.8333 27.5333C36.8333 38.8619 28.2061 46.1667 18.6667 46.1667C9.12726 46.1667 0.5 38.8619 0.5 27.5333Z" fill="#969696" stroke="#1F2D35"/>
</svg>
