<svg width="67" height="67" viewBox="0 0 67 67" fill="none" xmlns="http://www.w3.org/2000/svg">
<rect x="64" y="64" width="61" height="61" rx="30" transform="rotate(180 64 64)" fill="url(#paint0_linear)"/>
<g filter="url(#filter0_f)">
<rect x="65" y="65" width="63" height="63" rx="30" transform="rotate(180 65 65)" fill="url(#paint1_linear)"/>
</g>
<rect x="61.9995" y="61.9996" width="57" height="57" rx="28.5" transform="rotate(180 61.9995 61.9996)" fill="url(#paint2_linear)"/>
<g filter="url(#filter1_f)">
<rect x="62" y="62" width="57" height="57" rx="28.5" transform="rotate(180 62 62)" fill="url(#paint3_linear)"/>
</g>
<path d="M33.168 35.666C34.5487 35.666 35.668 34.5467 35.668 33.166C35.668 31.7853 34.5487 30.666 33.168 30.666C31.7873 30.666 30.668 31.7853 30.668 33.166C30.668 34.5467 31.7873 35.666 33.168 35.666Z" stroke="#7F8489" stroke-width="2" stroke-linecap="round" stroke-linejoin="round"/>
<path d="M39.3333 35.6667C39.2224 35.918 39.1893 36.1968 39.2383 36.4672C39.2873 36.7375 39.4162 36.9869 39.6083 37.1833L39.6583 37.2333C39.8133 37.3881 39.9362 37.5719 40.0201 37.7743C40.104 37.9766 40.1471 38.1935 40.1471 38.4125C40.1471 38.6315 40.104 38.8484 40.0201 39.0507C39.9362 39.2531 39.8133 39.4369 39.6583 39.5917C39.5035 39.7466 39.3197 39.8696 39.1174 39.9534C38.9151 40.0373 38.6982 40.0805 38.4792 40.0805C38.2601 40.0805 38.0433 40.0373 37.8409 39.9534C37.6386 39.8696 37.4548 39.7466 37.3 39.5917L37.25 39.5417C37.0536 39.3496 36.8042 39.2207 36.5338 39.1717C36.2635 39.1226 35.9847 39.1557 35.7333 39.2667C35.4869 39.3723 35.2767 39.5477 35.1286 39.7713C34.9805 39.9949 34.9011 40.2568 34.9 40.525V40.6667C34.9 41.1087 34.7244 41.5326 34.4118 41.8452C34.0993 42.1577 33.6754 42.3333 33.2333 42.3333C32.7913 42.3333 32.3674 42.1577 32.0548 41.8452C31.7423 41.5326 31.5667 41.1087 31.5667 40.6667V40.5917C31.5602 40.3158 31.4709 40.0483 31.3104 39.8239C31.1499 39.5995 30.9256 39.4286 30.6667 39.3333C30.4153 39.2224 30.1365 39.1893 29.8662 39.2383C29.5958 39.2873 29.3464 39.4162 29.15 39.6083L29.1 39.6583C28.9452 39.8133 28.7614 39.9362 28.5591 40.0201C28.3567 40.104 28.1399 40.1471 27.9208 40.1471C27.7018 40.1471 27.4849 40.104 27.2826 40.0201C27.0803 39.9362 26.8965 39.8133 26.7417 39.6583C26.5867 39.5035 26.4638 39.3197 26.3799 39.1174C26.296 38.9151 26.2529 38.6982 26.2529 38.4792C26.2529 38.2601 26.296 38.0433 26.3799 37.8409C26.4638 37.6386 26.5867 37.4548 26.7417 37.3L26.7917 37.25C26.9838 37.0536 27.1127 36.8042 27.1617 36.5338C27.2107 36.2635 27.1776 35.9847 27.0667 35.7333C26.961 35.4869 26.7856 35.2767 26.5621 35.1286C26.3385 34.9805 26.0765 34.9011 25.8083 34.9H25.6667C25.2246 34.9 24.8007 34.7244 24.4882 34.4118C24.1756 34.0993 24 33.6754 24 33.2333C24 32.7913 24.1756 32.3674 24.4882 32.0548C24.8007 31.7423 25.2246 31.5667 25.6667 31.5667H25.7417C26.0175 31.5602 26.285 31.4709 26.5094 31.3104C26.7338 31.1499 26.9048 30.9256 27 30.6667C27.1109 30.4153 27.144 30.1365 27.095 29.8662C27.046 29.5958 26.9171 29.3464 26.725 29.15L26.675 29.1C26.52 28.9452 26.3971 28.7614 26.3132 28.5591C26.2294 28.3567 26.1862 28.1399 26.1862 27.9208C26.1862 27.7018 26.2294 27.4849 26.3132 27.2826C26.3971 27.0803 26.52 26.8965 26.675 26.7417C26.8298 26.5867 27.0136 26.4638 27.2159 26.3799C27.4183 26.296 27.6351 26.2529 27.8542 26.2529C28.0732 26.2529 28.2901 26.296 28.4924 26.3799C28.6947 26.4638 28.8785 26.5867 29.0333 26.7417L29.0833 26.7917C29.2797 26.9838 29.5292 27.1127 29.7995 27.1617C30.0698 27.2107 30.3487 27.1776 30.6 27.0667H30.6667C30.9131 26.961 31.1233 26.7856 31.2714 26.5621C31.4195 26.3385 31.4989 26.0765 31.5 25.8083V25.6667C31.5 25.2246 31.6756 24.8007 31.9882 24.4882C32.3007 24.1756 32.7246 24 33.1667 24C33.6087 24 34.0326 24.1756 34.3452 24.4882C34.6577 24.8007 34.8333 25.2246 34.8333 25.6667V25.7417C34.8344 26.0098 34.9139 26.2718 35.0619 26.4954C35.21 26.719 35.4202 26.8944 35.6667 27C35.918 27.1109 36.1968 27.144 36.4672 27.095C36.7375 27.046 36.9869 26.9171 37.1833 26.725L37.2333 26.675C37.3881 26.52 37.5719 26.3971 37.7743 26.3132C37.9766 26.2294 38.1935 26.1862 38.4125 26.1862C38.6315 26.1862 38.8484 26.2294 39.0507 26.3132C39.2531 26.3971 39.4369 26.52 39.5917 26.675C39.7466 26.8298 39.8696 27.0136 39.9534 27.2159C40.0373 27.4183 40.0805 27.6351 40.0805 27.8542C40.0805 28.0732 40.0373 28.2901 39.9534 28.4924C39.8696 28.6947 39.7466 28.8785 39.5917 29.0333L39.5417 29.0833C39.3496 29.2797 39.2207 29.5292 39.1717 29.7995C39.1226 30.0698 39.1557 30.3487 39.2667 30.6V30.6667C39.3723 30.9131 39.5477 31.1233 39.7713 31.2714C39.9949 31.4195 40.2568 31.4989 40.525 31.5H40.6667C41.1087 31.5 41.5326 31.6756 41.8452 31.9882C42.1577 32.3007 42.3333 32.7246 42.3333 33.1667C42.3333 33.6087 42.1577 34.0326 41.8452 34.3452C41.5326 34.6577 41.1087 34.8333 40.6667 34.8333H40.5917C40.3235 34.8344 40.0615 34.9139 39.8379 35.0619C39.6144 35.21 39.439 35.4202 39.3333 35.6667V35.6667Z" stroke="#7F8489" stroke-width="2" stroke-linecap="round" stroke-linejoin="round"/>
<defs>
<filter id="filter0_f" x="0" y="0" width="67" height="67" filterUnits="userSpaceOnUse" color-interpolation-filters="sRGB">
<feFlood flood-opacity="0" result="BackgroundImageFix"/>
<feBlend mode="normal" in="SourceGraphic" in2="BackgroundImageFix" result="shape"/>
<feGaussianBlur stdDeviation="1" result="effect1_foregroundBlur"/>
</filter>
<filter id="filter1_f" x="1" y="1" width="65" height="65" filterUnits="userSpaceOnUse" color-interpolation-filters="sRGB">
<feFlood flood-opacity="0" result="BackgroundImageFix"/>
<feBlend mode="normal" in="SourceGraphic" in2="BackgroundImageFix" result="shape"/>
<feGaussianBlur stdDeviation="2" result="effect1_foregroundBlur"/>
</filter>
<linearGradient id="paint0_linear" x1="114.602" y1="118.068" x2="73.7045" y2="72.3182" gradientUnits="userSpaceOnUse">
<stop stop-color="#2C3036"/>
<stop offset="1" stop-color="#31343C"/>
</linearGradient>
<linearGradient id="paint1_linear" x1="117.261" y1="120.841" x2="75.0227" y2="73.5909" gradientUnits="userSpaceOnUse">
<stop stop-color="#2C3036"/>
<stop offset="1" stop-color="#31343C"/>
</linearGradient>
<linearGradient id="paint2_linear" x1="109.025" y1="111.875" x2="73.3995" y2="68.4121" gradientUnits="userSpaceOnUse">
<stop stop-color="#2F353A"/>
<stop offset="1" stop-color="#1C1F22"/>
</linearGradient>
<linearGradient id="paint3_linear" x1="109.025" y1="111.875" x2="73.4" y2="68.4125" gradientUnits="userSpaceOnUse">
<stop stop-color="#2F353A"/>
<stop offset="1" stop-color="#1C1F22"/>
</linearGradient>
</defs>
</svg>
