<svg width="57" height="57" viewBox="0 0 57 57" fill="none" xmlns="http://www.w3.org/2000/svg">
<path d="M28.7029 18.3606C29.076 18.3606 29.4339 18.5088 29.6977 18.7727C29.9616 19.0365 30.1098 19.3944 30.1098 19.7675V34.0139C31.436 34.3564 32.5918 35.1707 33.3606 36.3044C34.1294 37.4381 34.4583 38.8132 34.2857 40.172C34.1131 41.5308 33.4508 42.78 32.4231 43.6855C31.3953 44.591 30.0726 45.0905 28.7029 45.0905C27.3331 45.0905 26.0104 44.591 24.9827 43.6855C23.9549 42.78 23.2927 41.5308 23.1201 40.172C22.9475 38.8132 23.2764 37.4381 24.0451 36.3044C24.8139 35.1707 25.9697 34.3564 27.296 34.0139V19.7675C27.296 19.3944 27.4442 19.0365 27.708 18.7727C27.9719 18.5088 28.3297 18.3606 28.7029 18.3606Z" fill="#969696"/>
<path d="M28.7031 5.69849C26.4643 5.69849 24.3171 6.58785 22.734 8.17094C21.151 9.75403 20.2616 11.9012 20.2616 14.14V32.019C18.8289 33.6436 17.8954 35.647 17.5731 37.789C17.2508 39.9309 17.5534 42.1204 18.4446 44.0946C19.3358 46.0688 20.7777 47.7439 22.5973 48.919C24.417 50.094 26.537 50.719 28.7031 50.719C30.8691 50.719 32.9892 50.094 34.8088 48.919C36.6285 47.7439 38.0704 46.0688 38.9616 44.0946C39.8528 42.1204 40.1554 39.9309 39.8331 37.789C39.5108 35.647 38.5773 33.6436 37.1446 32.019V14.14C37.1446 11.9012 36.2552 9.75403 34.6721 8.17094C33.089 6.58785 30.9419 5.69849 28.7031 5.69849ZM28.7031 8.51231C30.1956 8.51231 31.627 9.10523 32.6824 10.1606C33.7378 11.216 34.3307 12.6474 34.3307 14.14V33.1474L34.7331 33.5554C35.8963 34.7427 36.6831 36.2471 36.9948 37.8798C37.3065 39.5125 37.1293 41.2008 36.4853 42.7332C35.8413 44.2656 34.7593 45.5737 33.3749 46.4936C31.9904 47.4136 30.3653 47.9043 28.7031 47.9043C27.0409 47.9043 25.4157 47.4136 24.0313 46.4936C22.6469 45.5737 21.5648 44.2656 20.9209 42.7332C20.2769 41.2008 20.0996 39.5125 20.4113 37.8798C20.7231 36.2471 21.5098 34.7427 22.673 33.5554L23.0754 33.1474V14.14C23.0754 12.6474 23.6683 11.216 24.7237 10.1606C25.7791 9.10523 27.2105 8.51231 28.7031 8.51231Z" fill="#969696"/>
</svg>
