<svg width="67" height="67" viewBox="0 0 67 67" fill="none" xmlns="http://www.w3.org/2000/svg">
<rect x="64" y="64" width="61" height="61" rx="30" transform="rotate(180 64 64)" fill="url(#paint0_linear)"/>
<g filter="url(#filter0_f)">
<rect x="65" y="65" width="63" height="63" rx="30" transform="rotate(180 65 65)" fill="url(#paint1_linear)"/>
</g>
<rect x="61.9995" y="61.9996" width="57" height="57" rx="28.5" transform="rotate(180 61.9995 61.9996)" fill="url(#paint2_linear)"/>
<g filter="url(#filter1_f)">
<rect x="62" y="62" width="57" height="57" rx="28.5" transform="rotate(180 62 62)" fill="url(#paint3_linear)"/>
</g>
<path d="M25.3508 41.5131C23.692 40.3078 22.3424 38.7268 21.4123 36.8994C20.4823 35.0721 19.9983 33.0504 20 31C20 23.8201 25.8201 18 33 18C40.1799 18 46 23.8201 46 31C46.0017 33.0504 45.5177 35.0721 44.5877 36.8994C43.6576 38.7268 42.308 40.3078 40.6492 41.5131L39.3297 39.2524C41.054 37.9298 42.3207 36.1002 42.9518 34.0207C43.5829 31.9412 43.5467 29.7162 42.8484 27.6583C42.15 25.6004 40.8245 23.813 39.0581 22.5471C37.2917 21.2812 35.1732 20.6004 33 20.6004C30.8268 20.6004 28.7083 21.2812 26.9419 22.5471C25.1755 23.813 23.85 25.6004 23.1516 27.6583C22.4533 29.7162 22.4171 31.9412 23.0482 34.0207C23.6793 36.1002 24.946 37.9298 26.6703 39.2524L25.3508 41.5131ZM27.995 36.9826C26.7665 35.9548 25.8842 34.5738 25.468 33.0272C25.0518 31.4805 25.1217 29.8432 25.6685 28.3377C26.2152 26.8322 27.2121 25.5315 28.5238 24.6124C29.8355 23.6932 31.3983 23.2001 33 23.2001C34.6017 23.2001 36.1645 23.6932 37.4762 24.6124C38.7879 25.5315 39.7848 26.8322 40.3315 28.3377C40.8783 29.8432 40.9482 31.4805 40.532 33.0272C40.1158 34.5738 39.2335 35.9548 38.005 36.9826L36.666 34.6868C37.3963 33.9608 37.8947 33.0343 38.0978 32.0248C38.301 31.0152 38.1998 29.9681 37.8071 29.0161C37.4145 28.0641 36.748 27.2502 35.8922 26.6774C35.0364 26.1047 34.0298 25.7989 33 25.7989C31.9702 25.7989 30.9636 26.1047 30.1078 26.6774C29.252 27.2502 28.5855 28.0641 28.1929 29.0161C27.8002 29.9681 27.699 31.0152 27.9022 32.0248C28.1053 33.0343 28.6037 33.9608 29.334 34.6868L27.995 36.9826ZM31.7 32.3H34.3L35.6 44H30.4L31.7 32.3Z" fill="#CEEEFF" fill-opacity="0.82"/>
<defs>
<filter id="filter0_f" x="0" y="0" width="67" height="67" filterUnits="userSpaceOnUse" color-interpolation-filters="sRGB">
<feFlood flood-opacity="0" result="BackgroundImageFix"/>
<feBlend mode="normal" in="SourceGraphic" in2="BackgroundImageFix" result="shape"/>
<feGaussianBlur stdDeviation="1" result="effect1_foregroundBlur"/>
</filter>
<filter id="filter1_f" x="1" y="1" width="65" height="65" filterUnits="userSpaceOnUse" color-interpolation-filters="sRGB">
<feFlood flood-opacity="0" result="BackgroundImageFix"/>
<feBlend mode="normal" in="SourceGraphic" in2="BackgroundImageFix" result="shape"/>
<feGaussianBlur stdDeviation="2" result="effect1_foregroundBlur"/>
</filter>
<linearGradient id="paint0_linear" x1="114.602" y1="118.068" x2="73.7045" y2="72.3182" gradientUnits="userSpaceOnUse">
<stop stop-color="#2C3036"/>
<stop offset="1" stop-color="#31343C"/>
</linearGradient>
<linearGradient id="paint1_linear" x1="117.261" y1="120.841" x2="75.0227" y2="73.5909" gradientUnits="userSpaceOnUse">
<stop stop-color="#2C3036"/>
<stop offset="1" stop-color="#31343C"/>
</linearGradient>
<linearGradient id="paint2_linear" x1="109.025" y1="111.875" x2="73.3995" y2="68.4121" gradientUnits="userSpaceOnUse">
<stop stop-color="#2F353A"/>
<stop offset="1" stop-color="#1C1F22"/>
</linearGradient>
<linearGradient id="paint3_linear" x1="109.025" y1="111.875" x2="73.4" y2="68.4125" gradientUnits="userSpaceOnUse">
<stop stop-color="#2F353A"/>
<stop offset="1" stop-color="#1C1F22"/>
</linearGradient>
</defs>
</svg>
