<svg width="16" height="16" viewBox="0 0 16 16" fill="none" xmlns="http://www.w3.org/2000/svg">
<path fill-rule="evenodd" clip-rule="evenodd" d="M3.57026 1.70808H3.52171C3.29932 1.70808 3.108 1.70808 2.93902 1.7479C2.67743 1.81041 2.43825 1.94412 2.24798 2.13421C2.05772 2.32431 1.92379 2.56337 1.86105 2.8249C1.8222 2.99388 1.8222 3.18422 1.8222 3.40759V5.83545C1.8222 6.05784 1.8222 6.24916 1.86202 6.41814C1.92453 6.67973 2.05824 6.91891 2.24833 7.10917C2.43843 7.29944 2.67749 7.43336 2.93902 7.49611C3.108 7.53495 3.29834 7.53495 3.52171 7.53495H5.94957C6.17196 7.53495 6.36328 7.53495 6.53226 7.49514C6.79385 7.43263 7.03303 7.29892 7.22329 7.10882C7.41356 6.91873 7.54748 6.67967 7.61023 6.41814C7.64907 6.24916 7.64907 6.05881 7.64907 5.83545V3.40759C7.64907 3.1852 7.64907 2.99388 7.60926 2.8249C7.54675 2.56331 7.41304 2.32413 7.22294 2.13386C7.03285 1.9436 6.79379 1.80967 6.53226 1.74693C6.36328 1.70808 6.17293 1.70808 5.94957 1.70808H3.57026ZM3.1653 2.69282C3.20706 2.68311 3.27212 2.67923 3.57026 2.67923H5.90101C6.20012 2.67923 6.26422 2.68214 6.30598 2.69282C6.39322 2.71369 6.47297 2.7583 6.5364 2.82173C6.59982 2.88516 6.64444 2.96491 6.6653 3.05215C6.67501 3.09294 6.67793 3.15703 6.67793 3.45614V5.78689C6.67793 6.086 6.67501 6.1501 6.66433 6.19186C6.64347 6.2791 6.59885 6.35885 6.53543 6.42228C6.472 6.4857 6.39225 6.53032 6.30501 6.55118C6.26519 6.55992 6.2011 6.56381 5.90101 6.56381H3.57026C3.27115 6.56381 3.20706 6.56089 3.1653 6.55021C3.07806 6.52935 2.99831 6.48473 2.93488 6.42131C2.87145 6.35788 2.82684 6.27813 2.80597 6.19089C2.79723 6.15107 2.79335 6.08698 2.79335 5.78689V3.45614C2.79335 3.15703 2.79626 3.09294 2.80695 3.05118C2.82781 2.96394 2.87242 2.88418 2.93585 2.82076C2.99928 2.75733 3.07903 2.71272 3.16627 2.69185L3.1653 2.69282ZM10.3683 1.70808H10.3197C10.0973 1.70808 9.90601 1.70808 9.73703 1.7479C9.47544 1.81041 9.23626 1.94412 9.046 2.13421C8.85573 2.32431 8.72181 2.56337 8.65906 2.8249C8.62022 2.99388 8.62022 3.18422 8.62022 3.40759V5.83545C8.62022 6.05784 8.62022 6.24916 8.66003 6.41814C8.72254 6.67973 8.85625 6.91891 9.04635 7.10917C9.23644 7.29944 9.4755 7.43336 9.73703 7.49611C9.90601 7.53495 10.0964 7.53495 10.3197 7.53495H12.7476C12.97 7.53495 13.1613 7.53495 13.3303 7.49514C13.5919 7.43263 13.831 7.29892 14.0213 7.10882C14.2116 6.91873 14.3455 6.67967 14.4082 6.41814C14.4471 6.24916 14.4471 6.05881 14.4471 5.83545V3.40759C14.4471 3.1852 14.4471 2.99388 14.4073 2.8249C14.3448 2.56331 14.2111 2.32413 14.021 2.13386C13.8309 1.9436 13.5918 1.80967 13.3303 1.74693C13.1613 1.70808 12.9709 1.70808 12.7476 1.70808H10.3683ZM9.96331 2.69282C10.0051 2.68311 10.0701 2.67923 10.3683 2.67923H12.699C12.9981 2.67923 13.0622 2.68214 13.104 2.69282C13.1912 2.71369 13.271 2.7583 13.3344 2.82173C13.3978 2.88516 13.4425 2.96491 13.4633 3.05215C13.473 3.09294 13.4759 3.15703 13.4759 3.45614V5.78689C13.4759 6.086 13.4721 6.1501 13.4623 6.19186C13.4415 6.2791 13.3969 6.35885 13.3334 6.42228C13.27 6.4857 13.1903 6.53032 13.103 6.55118C13.0622 6.56089 12.9981 6.56381 12.699 6.56381H10.3683C10.0692 6.56381 10.0051 6.56089 9.96331 6.55021C9.87607 6.52935 9.79632 6.48473 9.73289 6.42131C9.66947 6.35788 9.62485 6.27813 9.60399 6.19089C9.59525 6.15107 9.59136 6.08698 9.59136 5.78689V3.45614C9.59136 3.15703 9.59428 3.09294 9.60496 3.05118C9.62582 2.96394 9.67044 2.88418 9.73386 2.82076C9.79729 2.75733 9.87704 2.71272 9.96428 2.69185L9.96331 2.69282ZM3.52171 8.5061H5.94957C6.17196 8.5061 6.36328 8.5061 6.53226 8.54591C6.79385 8.60842 7.03303 8.74213 7.22329 8.93222C7.41356 9.12232 7.54748 9.36138 7.61023 9.62291C7.64907 9.79189 7.64907 9.98224 7.64907 10.2056V12.6335C7.64907 12.8559 7.64907 13.0472 7.60926 13.2161C7.54675 13.4777 7.41304 13.7169 7.22294 13.9072C7.03285 14.0975 6.79379 14.2314 6.53226 14.2941C6.36328 14.333 6.17293 14.333 5.94957 14.333H3.52171C3.29932 14.333 3.108 14.333 2.93902 14.2931C2.67743 14.2306 2.43825 14.0969 2.24798 13.9068C2.05772 13.7167 1.92379 13.4777 1.86105 13.2161C1.8222 13.0472 1.8222 12.8568 1.8222 12.6335V10.2056C1.8222 9.98321 1.8222 9.79189 1.86202 9.62291C1.92453 9.36132 2.05824 9.12214 2.24833 8.93188C2.43843 8.74161 2.67749 8.60769 2.93902 8.54494C3.108 8.5061 3.29834 8.5061 3.52171 8.5061ZM3.57026 9.47724C3.27115 9.47724 3.20706 9.48015 3.1653 9.49084C3.07806 9.5117 2.99831 9.55632 2.93488 9.61974C2.87145 9.68317 2.82684 9.76292 2.80597 9.85016C2.79723 9.88998 2.79335 9.95407 2.79335 10.2542V12.5849C2.79335 12.884 2.79626 12.9481 2.80695 12.9899C2.82781 13.0771 2.87242 13.1569 2.93585 13.2203C2.99928 13.2837 3.07903 13.3283 3.16627 13.3492C3.20706 13.3589 3.27115 13.3618 3.57026 13.3618H5.90101C6.20012 13.3618 6.26422 13.3579 6.30598 13.3482C6.39322 13.3274 6.47297 13.2827 6.5364 13.2193C6.59982 13.1559 6.64444 13.0761 6.6653 12.9889C6.67501 12.9481 6.67793 12.884 6.67793 12.5849V10.2542C6.67793 9.95504 6.67501 9.89095 6.66433 9.84919C6.64347 9.76195 6.59885 9.6822 6.53543 9.61877C6.472 9.55535 6.39225 9.51073 6.30501 9.48987C6.26519 9.48113 6.2011 9.47724 5.90101 9.47724H3.57026ZM10.3683 8.5061H10.3197C10.0973 8.5061 9.90601 8.5061 9.73703 8.54591C9.47544 8.60842 9.23626 8.74213 9.046 8.93222C8.85573 9.12232 8.72181 9.36138 8.65906 9.62291C8.62022 9.79189 8.62022 9.98224 8.62022 10.2056V12.6335C8.62022 12.8559 8.62022 13.0472 8.66003 13.2161C8.72254 13.4777 8.85625 13.7169 9.04635 13.9072C9.23644 14.0975 9.4755 14.2314 9.73703 14.2941C9.90601 14.3339 10.0973 14.3339 10.3197 14.3339H12.7476C12.97 14.3339 13.1613 14.3339 13.3303 14.2941C13.5917 14.2315 13.8307 14.0977 14.0207 13.9076C14.2108 13.7175 14.3446 13.4785 14.4073 13.2171C14.4471 13.0481 14.4471 12.8568 14.4471 12.6344V10.2056C14.4471 9.98321 14.4471 9.79189 14.4073 9.62291C14.3448 9.36132 14.2111 9.12214 14.021 8.93188C13.8309 8.74161 13.5918 8.60769 13.3303 8.54494C13.1613 8.5061 12.9709 8.5061 12.7476 8.5061H10.3683ZM9.96331 9.49084C10.0051 9.48113 10.0701 9.47724 10.3683 9.47724H12.699C12.9981 9.47724 13.0622 9.48015 13.104 9.49084C13.1912 9.5117 13.271 9.55632 13.3344 9.61974C13.3978 9.68317 13.4425 9.76292 13.4633 9.85016C13.473 9.89095 13.4759 9.95504 13.4759 10.2542V12.5849C13.4759 12.884 13.4721 12.9481 13.4623 12.9899C13.4415 13.0771 13.3969 13.1569 13.3334 13.2203C13.27 13.2837 13.1903 13.3283 13.103 13.3492C13.0622 13.3589 12.9981 13.3618 12.699 13.3618H10.3683C10.0692 13.3618 10.0051 13.3579 9.96331 13.3482C9.87607 13.3274 9.79632 13.2827 9.73289 13.2193C9.66947 13.1559 9.62485 13.0761 9.60399 12.9889C9.59525 12.9491 9.59136 12.885 9.59136 12.5849V10.2542C9.59136 9.95504 9.59428 9.89095 9.60496 9.84919C9.62582 9.76195 9.67044 9.6822 9.73386 9.61877C9.79729 9.55535 9.87704 9.51073 9.96428 9.48987L9.96331 9.49084Z" fill="#7F8489"/>
</svg>
