<svg width="22" height="23" viewBox="0 0 22 23" fill="none" xmlns="http://www.w3.org/2000/svg">
<path d="M11.0002 2.28267C10.0937 2.28267 9.20761 2.55148 8.45388 3.0551C7.70016 3.55872 7.1127 4.27454 6.7658 5.11204C6.41889 5.94953 6.32813 6.87109 6.50498 7.76017C6.68183 8.64925 7.11835 9.46592 7.75934 10.1069C8.40033 10.7479 9.217 11.1844 10.1061 11.3613C10.9952 11.5381 11.9167 11.4474 12.7542 11.1005C13.5917 10.7535 14.3075 10.1661 14.8111 9.41237C15.3148 8.65864 15.5836 7.7725 15.5836 6.866C15.5836 5.65043 15.1007 4.48464 14.2412 3.6251C13.3816 2.76555 12.2158 2.28267 11.0002 2.28267V2.28267ZM11.0002 9.616C10.4563 9.616 9.92466 9.45472 9.47243 9.15254C9.02019 8.85037 8.66772 8.42088 8.45958 7.91838C8.25143 7.41589 8.19698 6.86295 8.30308 6.3295C8.40919 5.79606 8.67111 5.30605 9.0557 4.92146C9.4403 4.53686 9.9303 4.27495 10.4637 4.16884C10.9972 4.06273 11.5501 4.11719 12.0526 4.32533C12.5551 4.53348 12.9846 4.88595 13.2868 5.33818C13.589 5.79042 13.7502 6.3221 13.7502 6.866C13.7502 7.59535 13.4605 8.29482 12.9448 8.81055C12.4291 9.32627 11.7296 9.616 11.0002 9.616V9.616ZM19.2502 19.6993V18.7827C19.2502 17.0809 18.5742 15.4488 17.3708 14.2454C16.1675 13.042 14.5354 12.366 12.8336 12.366H9.16691C7.46511 12.366 5.833 13.042 4.62964 14.2454C3.42628 15.4488 2.75024 17.0809 2.75024 18.7827V19.6993H4.58358V18.7827C4.58358 17.5671 5.06646 16.4013 5.92601 15.5418C6.78555 14.6822 7.95134 14.1993 9.16691 14.1993H12.8336C14.0492 14.1993 15.2149 14.6822 16.0745 15.5418C16.934 16.4013 17.4169 17.5671 17.4169 18.7827V19.6993H19.2502Z" fill="#41BBFF"/>
</svg>
