<svg width="26" height="25" viewBox="0 0 26 25" fill="none" xmlns="http://www.w3.org/2000/svg">
<path d="M13.0016 15.1242C14.6584 15.1242 16.0016 13.781 16.0016 12.1241C16.0016 10.4673 14.6584 9.12413 13.0016 9.12413C11.3447 9.12413 10.0016 10.4673 10.0016 12.1241C10.0016 13.781 11.3447 15.1242 13.0016 15.1242Z" stroke="#7F8489" stroke-width="2.09478" stroke-linecap="round" stroke-linejoin="round"/>
<path d="M20.4 15.125C20.2669 15.4266 20.2272 15.7612 20.286 16.0856C20.3448 16.41 20.4995 16.7093 20.73 16.945L20.79 17.005C20.976 17.1907 21.1235 17.4113 21.2241 17.6541C21.3248 17.8969 21.3766 18.1572 21.3766 18.42C21.3766 18.6828 21.3248 18.9431 21.2241 19.1859C21.1235 19.4287 20.976 19.6493 20.79 19.835C20.6043 20.021 20.3837 20.1685 20.1409 20.2691C19.8981 20.3698 19.6378 20.4216 19.375 20.4216C19.1122 20.4216 18.8519 20.3698 18.6091 20.2691C18.3663 20.1685 18.1457 20.021 17.96 19.835L17.9 19.775C17.6643 19.5445 17.365 19.3898 17.0406 19.331C16.7162 19.2722 16.3816 19.3119 16.08 19.445C15.7842 19.5718 15.532 19.7822 15.3543 20.0505C15.1766 20.3188 15.0813 20.6332 15.08 20.955V21.125C15.08 21.6554 14.8693 22.1641 14.4942 22.5392C14.1191 22.9143 13.6104 23.125 13.08 23.125C12.5496 23.125 12.0409 22.9143 11.6658 22.5392C11.2907 22.1641 11.08 21.6554 11.08 21.125V21.035C11.0723 20.704 10.9651 20.383 10.7725 20.1137C10.5799 19.8444 10.3107 19.6393 10 19.525C9.69838 19.3919 9.36381 19.3522 9.03941 19.411C8.71502 19.4698 8.41568 19.6245 8.18 19.855L8.12 19.915C7.93425 20.101 7.71368 20.2485 7.47088 20.3491C7.22808 20.4498 6.96783 20.5016 6.705 20.5016C6.44217 20.5016 6.18192 20.4498 5.93912 20.3491C5.69632 20.2485 5.47575 20.101 5.29 19.915C5.10405 19.7293 4.95653 19.5087 4.85588 19.2659C4.75523 19.0231 4.70343 18.7628 4.70343 18.5C4.70343 18.2372 4.75523 17.9769 4.85588 17.7341C4.95653 17.4913 5.10405 17.2707 5.29 17.085L5.35 17.025C5.58054 16.7893 5.73519 16.49 5.794 16.1656C5.85282 15.8412 5.81312 15.5066 5.68 15.205C5.55324 14.9092 5.34276 14.657 5.07447 14.4793C4.80618 14.3016 4.49179 14.2063 4.17 14.205H4C3.46957 14.205 2.96086 13.9943 2.58579 13.6192C2.21071 13.2441 2 12.7354 2 12.205C2 11.6746 2.21071 11.1659 2.58579 10.7908C2.96086 10.4157 3.46957 10.205 4 10.205H4.09C4.42099 10.1973 4.742 10.0901 5.0113 9.89751C5.28059 9.7049 5.48572 9.43574 5.6 9.125C5.73312 8.82338 5.77282 8.48881 5.714 8.16441C5.65519 7.84002 5.50054 7.54068 5.27 7.305L5.21 7.245C5.02405 7.05925 4.87653 6.83868 4.77588 6.59588C4.67523 6.35308 4.62343 6.09283 4.62343 5.83C4.62343 5.56717 4.67523 5.30692 4.77588 5.06412C4.87653 4.82132 5.02405 4.60075 5.21 4.415C5.39575 4.22905 5.61632 4.08153 5.85912 3.98088C6.10192 3.88023 6.36217 3.82843 6.625 3.82843C6.88783 3.82843 7.14808 3.88023 7.39088 3.98088C7.63368 4.08153 7.85425 4.22905 8.04 4.415L8.1 4.475C8.33568 4.70554 8.63502 4.86019 8.95941 4.919C9.28381 4.97782 9.61838 4.93812 9.92 4.805H10C10.2958 4.67824 10.548 4.46776 10.7257 4.19947C10.9034 3.93118 10.9987 3.61679 11 3.295V3.125C11 2.59457 11.2107 2.08586 11.5858 1.71079C11.9609 1.33571 12.4696 1.125 13 1.125C13.5304 1.125 14.0391 1.33571 14.4142 1.71079C14.7893 2.08586 15 2.59457 15 3.125V3.215C15.0013 3.53679 15.0966 3.85118 15.2743 4.11947C15.452 4.38776 15.7042 4.59824 16 4.725C16.3016 4.85812 16.6362 4.89782 16.9606 4.839C17.285 4.78019 17.5843 4.62554 17.82 4.395L17.88 4.335C18.0657 4.14905 18.2863 4.00153 18.5291 3.90088C18.7719 3.80023 19.0322 3.74843 19.295 3.74843C19.5578 3.74843 19.8181 3.80023 20.0609 3.90088C20.3037 4.00153 20.5243 4.14905 20.71 4.335C20.896 4.52075 21.0435 4.74132 21.1441 4.98412C21.2448 5.22692 21.2966 5.48717 21.2966 5.75C21.2966 6.01283 21.2448 6.27308 21.1441 6.51588C21.0435 6.75868 20.896 6.97925 20.71 7.165L20.65 7.225C20.4195 7.46068 20.2648 7.76002 20.206 8.08441C20.1472 8.40881 20.1869 8.74338 20.32 9.045V9.125C20.4468 9.42077 20.6572 9.67302 20.9255 9.85069C21.1938 10.0284 21.5082 10.1237 21.83 10.125H22C22.5304 10.125 23.0391 10.3357 23.4142 10.7108C23.7893 11.0859 24 11.5946 24 12.125C24 12.6554 23.7893 13.1641 23.4142 13.5392C23.0391 13.9143 22.5304 14.125 22 14.125H21.91C21.5882 14.1263 21.2738 14.2216 21.0055 14.3993C20.7372 14.577 20.5268 14.8292 20.4 15.125V15.125Z" stroke="#7F8489" stroke-width="2.09478" stroke-linecap="round" stroke-linejoin="round"/>
</svg>
